<?xml version="1.0" encoding="UTF-8" standalone="no"?>
<!-- Created with Inkscape (http://www.inkscape.org/) -->

<svg
   xmlns:dc="http://purl.org/dc/elements/1.1/"
   xmlns:cc="http://creativecommons.org/ns#"
   xmlns:rdf="http://www.w3.org/1999/02/22-rdf-syntax-ns#"
   xmlns:svg="http://www.w3.org/2000/svg"
   xmlns="http://www.w3.org/2000/svg"
   xmlns:sodipodi="http://sodipodi.sourceforge.net/DTD/sodipodi-0.dtd"
   xmlns:inkscape="http://www.inkscape.org/namespaces/inkscape"
   width="41"
   height="32"
   viewBox="0 0 41 32.000001"
   id="svg4174"
   version="1.1"
   inkscape:version="0.91 r13725"
   sodipodi:docname="3d_icon.svg">
  <defs
     id="defs4176" />
  <sodipodi:namedview
     id="base"
     pagecolor="#ffffff"
     bordercolor="#666666"
     borderopacity="1.0"
     inkscape:pageopacity="0.0"
     inkscape:pageshadow="2"
     inkscape:zoom="16"
     inkscape:cx="15.705901"
     inkscape:cy="17.22488"
     inkscape:document-units="px"
     inkscape:current-layer="text4726"
     showgrid="false"
     units="px"
     showguides="false"
     inkscape:window-width="1858"
     inkscape:window-height="1057"
     inkscape:window-x="1974"
     inkscape:window-y="-8"
     inkscape:window-maximized="1" />
  <metadata
     id="metadata4179">
    <rdf:RDF>
      <cc:Work
         rdf:about="">
        <dc:format>image/svg+xml</dc:format>
        <dc:type
           rdf:resource="http://purl.org/dc/dcmitype/StillImage" />
        <dc:title></dc:title>
      </cc:Work>
    </rdf:RDF>
  </metadata>
  <g
     inkscape:label="Layer 1"
     inkscape:groupmode="layer"
     id="layer1"
     transform="translate(0,-1020.3622)">
    <g
       transform="scale(0.86139736,1.1609044)"
       style="font-style:normal;font-weight:normal;font-size:36.24193573px;line-height:100%;font-family:sans-serif;letter-spacing:0px;word-spacing:0px;fill:#000000;fill-opacity:1;stroke:none;stroke-width:1px;stroke-linecap:butt;stroke-linejoin:miter;stroke-opacity:1"
       id="text4722">
      <path
         d="m 14.609724,891.70733 q 2.672135,0.69016 4.052443,2.40669 1.398004,1.69884 1.398004,4.33559 0,3.92857 -3.008364,5.98133 -3.008363,2.03507 -8.7773434,2.03507 -2.0350697,0 -4.0878355,-0.33623 -2.0350697,-0.31853 -4.0347468,-0.97329 l 0,-5.25579 q 1.9111958,0.9556 3.7869991,1.45109 1.8934996,0.4778 3.7162142,0.4778 2.7075274,0 4.1409244,-0.9379 1.451093,-0.9379 1.451093,-2.68983 0,-1.80502 -1.486486,-2.72522 -1.468789,-0.93791 -4.353279,-0.93791 l -2.7252237,0 0,-4.38867 2.8667937,0 q 2.565957,0 3.822392,-0.79633 1.256434,-0.81403 1.256434,-2.45978 0,-1.52188 -1.221042,-2.3536 -1.221042,-0.83173 -3.4507701,-0.83173 -1.6457519,0 -3.3268964,0.37163 -1.6811445,0.37162 -3.3445927,1.09716 l 0,-4.99034 q 2.0173734,-0.56628 3.9993542,-0.84942 1.9819809,-0.28314 3.8931767,-0.28314 5.1496113,0 7.6978723,1.69884 2.565957,1.68114 2.565957,5.07882 0,2.31821 -1.221042,3.8047 -1.221041,1.46879 -3.610036,2.07046 z"
         style="font-style:normal;font-variant:normal;font-weight:bold;font-stretch:normal;font-family:sans-serif;-inkscape-font-specification:'sans-serif Bold';fill:#000000;fill-opacity:1"
         id="path4760"
         inkscape:connector-curvature="0" />
    </g>
    <g
       transform="matrix(1.0606056,0.01569662,-0.01464405,0.94264084,0,0)"
       style="font-style:normal;font-weight:normal;font-size:45.84780884px;line-height:100%;font-family:sans-serif;letter-spacing:0px;word-spacing:0px;fill:#000000;fill-opacity:1;stroke:none;stroke-width:1px;stroke-linecap:butt;stroke-linejoin:miter;stroke-opacity:1"
       id="text4726">
      <g
         transform="matrix(0.77217728,-0.0128581,0.01666625,1.2070648,1.2344046,-0.020555)"
         style="font-style:normal;font-weight:normal;font-size:38.2779007px;line-height:100%;font-family:sans-serif;letter-spacing:0px;word-spacing:0px;fill:#000000;fill-opacity:1;stroke:none;stroke-width:1px;stroke-linecap:butt;stroke-linejoin:miter;stroke-opacity:1"
         id="text4762">
        <path
           d="m 29.204059,902.14689 0,17.02694 2.579273,0 q 4.41093,0 6.728537,-2.18677 2.336298,-2.18678 2.336298,-6.35473 0,-4.14927 -2.317608,-6.31735 -2.317607,-2.16809 -6.747227,-2.16809 l -2.579273,0 z m -7.195797,-5.4389 7.588295,0 q 6.35473,0 9.457333,0.91583 3.121294,0.89714 5.345449,3.06522 1.96249,1.88773 2.915699,4.35486 0.95321,2.46713 0.95321,5.58843 0,3.15867 -0.95321,5.64449 -0.953209,2.46713 -2.915699,4.35486 -2.242846,2.16808 -5.38283,3.08391 -3.139984,0.89714 -9.419952,0.89714 l -7.588295,0 0,-27.90474 z"
           style="font-style:normal;font-variant:normal;font-weight:bold;font-stretch:normal;font-family:sans-serif;-inkscape-font-specification:'sans-serif Bold'"
           id="path4767"
           inkscape:connector-curvature="0" />
      </g>
    </g>
  </g>
</svg>
