<?xml version="1.0" encoding="UTF-8" standalone="no"?>
<!-- Created with Inkscape (http://www.inkscape.org/) -->

<svg
   xmlns:dc="http://purl.org/dc/elements/1.1/"
   xmlns:cc="http://creativecommons.org/ns#"
   xmlns:rdf="http://www.w3.org/1999/02/22-rdf-syntax-ns#"
   xmlns:svg="http://www.w3.org/2000/svg"
   xmlns="http://www.w3.org/2000/svg"
   xmlns:sodipodi="http://sodipodi.sourceforge.net/DTD/sodipodi-0.dtd"
   xmlns:inkscape="http://www.inkscape.org/namespaces/inkscape"
   width="42"
   height="32"
   viewBox="0 0 42 32.000001"
   id="svg4174"
   version="1.1"
   inkscape:version="0.91 r13725"
   sodipodi:docname="3d.svg">
  <defs
     id="defs4176" />
  <sodipodi:namedview
     id="base"
     pagecolor="#ffffff"
     bordercolor="#666666"
     borderopacity="1.0"
     inkscape:pageopacity="0.0"
     inkscape:pageshadow="2"
     inkscape:zoom="8"
     inkscape:cx="7.7452563"
     inkscape:cy="18.279693"
     inkscape:document-units="px"
     inkscape:current-layer="layer2"
     showgrid="false"
     units="px"
     showguides="false"
     inkscape:window-width="1858"
     inkscape:window-height="1057"
     inkscape:window-x="54"
     inkscape:window-y="381"
     inkscape:window-maximized="1" />
  <metadata
     id="metadata4179">
    <rdf:RDF>
      <cc:Work
         rdf:about="">
        <dc:format>image/svg+xml</dc:format>
        <dc:type
           rdf:resource="http://purl.org/dc/dcmitype/StillImage" />
        <dc:title></dc:title>
      </cc:Work>
    </rdf:RDF>
  </metadata>
  <g
     inkscape:groupmode="layer"
     id="layer2"
     inkscape:label="Layer 2">
    <g
       style="font-style:normal;font-weight:normal;font-size:38.2779007px;line-height:100%;font-family:sans-serif;letter-spacing:0px;word-spacing:0px;opacity:1;fill:#000000;fill-opacity:1;stroke:none;stroke-width:1px;stroke-linecap:butt;stroke-linejoin:miter;stroke-opacity:1"
       id="text4762-4">
      <path
         d="m 26.522991,6.4484557 0,19.2747593 2.075412,0 c 2.366171,0 4.16586,-0.825146 5.414117,-2.475458 1.248257,-1.650312 1.879902,-4.055246 1.879902,-7.193652 0,-3.138406 -0.621621,-5.515134 -1.864863,-7.1513379 C 32.784317,7.2665632 31.215698,6.6508882 28.598403,6.4484557 Z m -5.790099,-6.15691907 6.105922,0 c 3.40889,0 5.940474,0.35262662 7.609845,1.03673367 1.669371,0.684107 3.178281,1.9394519 4.301215,3.4698766 1.122934,1.5304247 1.834782,3.067887 2.346116,4.9297693 0.511334,1.8618828 0.767002,3.9565128 0.767002,6.3261888 0,2.369676 -0.255668,4.520714 -0.767002,6.38965 -0.511334,1.868936 -1.218174,3.399351 -2.346116,4.929769 -1.127942,1.530418 -2.646891,2.80693 -4.331294,3.491034 -1.684403,0.684104 -4.915264,1.015576 -7.579766,1.015576 l -6.105922,0 z"
         style="font-style:normal;font-variant:normal;font-weight:bold;font-stretch:normal;font-family:sans-serif;-inkscape-font-specification:'sans-serif Bold'"
         id="path4767-6"
         inkscape:connector-curvature="0"
         sodipodi:nodetypes="ccszzzcccszzzzzzzscc" />
    </g>
    <g
       style="font-style:normal;font-weight:normal;font-size:36.24193573px;line-height:100%;font-family:sans-serif;letter-spacing:0px;word-spacing:0px;opacity:1;fill:#000000;fill-opacity:1;stroke:none;stroke-width:1px;stroke-linecap:butt;stroke-linejoin:miter;stroke-opacity:1"
       id="text4722-3">
      <path
         d="m 12.985132,14.844543 c 1.583811,0.53339 2.779525,1.470214 3.602909,2.790014 0.823384,1.3198 1.242924,2.842688 1.242924,5.026136 0,2.183448 -0.847352,5.221777 -2.674649,6.934002 -1.827297,1.712225 -4.384322,2.359204 -7.8036783,2.359204 -1.2062139,0 -2.4229039,-0.136765 -3.6343747,-0.389783 C 2.5067922,31.311098 1.3163242,30.941838 0.13108794,30.435807 l 0,-6.092901 c 1.13279196,0.738535 2.24982396,1.306097 3.36690966,1.68221 1.1170857,0.376113 1.9614089,0.553901 3.3039773,0.553901 1.3425684,0 2.8267317,-0.362425 3.6815741,-1.087283 0.854842,-0.724858 1.290124,-1.764273 1.290124,-3.118251 0,-1.395007 -0.445748,-2.441237 -1.32159,-3.159277 -0.8758425,-0.71804 -2.1609461,-1.118475 -3.8703734,-1.087295 l -2.4229163,0 0,-5.08767 2.5487821,0 c 1.5208781,0 2.653661,-0.300872 3.3983776,-0.923165 0.744717,-0.622293 1.117056,-1.627508 1.117056,-2.851559 0,-1.2240509 -0.361861,-2.0856699 -1.08559,-2.728468 C 9.4136902,5.8932509 8.2179648,5.5718458 7.0694395,5.5718458 c -1.1485253,0 -1.9614083,0.1436109 -2.9578459,0.4308211 C 3.115156,6.2898771 2.123963,6.7138429 1.1380142,7.274576 l 0,-5.7851717 C 2.3337393,1.0517551 3.5189753,0.72351812 4.6937227,0.50469359 5.8684701,0.28586906 6.0625134,0.1764568 8.155032,0.1764568 c 2.092519,0 5.328305,0.66330137 6.843953,1.9694212 1.515648,1.3061198 2.281315,3.6789841 2.281315,5.8877444 0,2.2087606 -0.361859,3.2686946 -1.08559,4.4106906 -0.723731,1.141996 -1.793589,1.935231 -3.209578,2.40023 z"
         style="font-style:normal;font-variant:normal;font-weight:bold;font-stretch:normal;font-family:sans-serif;-inkscape-font-specification:'sans-serif Bold';fill:#000000;fill-opacity:1"
         id="path4760-8"
         inkscape:connector-curvature="0"
         sodipodi:nodetypes="czzzszcczzzszsccszzzzzcczzzzzc" />
    </g>
  </g>
</svg>
