<?xml version="1.0" ?>
<svg xmlns="http://www.w3.org/2000/svg" height="32" width="41" viewBox="0 2 41 33.5">
<g transform="translate(0 -1.02e3)">
<g transform="matrix(1.06 .0157 -.0146 .943 0 0)">
<g transform="matrix(.772 -.0129 .0167 1.21 1.23 -.0206)">
<path d="m29.2 902v17h2.58q4.41 0 6.73-2.19 2.34-2.19 2.34-6.35 0-4.15-2.32-6.32t-6.75-2.17h-2.58zm-7.2-5.44h7.59q6.35 0 9.46 0.916 3.12 0.897 5.35 3.07 1.96 1.89 2.92 4.35 0.953 2.47 0.953 5.59 0 3.16-0.953 5.64-0.953 2.47-2.92 4.35-2.24 2.17-5.38 3.08-3.14 0.897-9.42 0.897h-7.59v-27.9zm-8.24 12.9q2.81 0.704 4.26 2.45 1.47 1.73 1.47 4.42 0 4.01-3.16 6.1-3.16 2.08-9.23 2.08-2.14 0-4.3-0.343-2.14-0.325-4.24-0.993v-5.36q2.01 0.975 3.98 1.48 1.99 0.487 3.91 0.487 2.85 0 4.35-0.957 1.53-0.957 1.53-2.74 0-1.84-1.56-2.78-1.54-0.957-4.58-0.957h-2.87v-4.48h3.01q2.7 0 4.02-0.812 1.32-0.83 1.32-2.51 0-1.55-1.28-2.4-1.28-0.848-3.63-0.848-1.73 0-3.5 0.379t-3.52 1.12l1e-8 -5.09q2.12-0.578 4.21-0.866 2.08-0.289 4.09-0.289 5.42 0 8.09 1.73 2.7 1.71 2.7 5.18 0 2.36-1.28 3.88-1.28 1.5-3.8 2.11z"/>
</g>
</g>
</g>
</svg>
