<?xml version="1.0" encoding="UTF-8"?>
<svg viewBox="0 0 32 32" xmlns="http://www.w3.org/2000/svg">
	<path d="m20.4 16.5 6.57-6.57c0.962-0.963 0.962-2.54 0-3.5l-0.876-0.875c-0.963-0.964-2.54-0.964-3.5 0l-6.57 6.57-6.57-6.57c-0.962-0.963-2.54-0.963-3.5 0l-0.876 0.875c-0.962 0.963-0.962 2.54 0 3.5l6.57 6.57-6.57 6.57c-0.962 0.963-0.962 2.54 0 3.5l0.876 0.876c0.963 0.963 2.54 0.963 3.5 0l6.57-6.57 6.57 6.57c0.962 0.963 2.54 0.963 3.5 0l0.876-0.876c0.962-0.963 0.962-2.54 0-3.5l-6.57-6.57z"/>
</svg>
