<?xml version="1.0" ?><!DOCTYPE svg  PUBLIC '-//W3C//DTD SVG 1.1//EN'  'http://www.w3.org/Graphics/SVG/1.1/DTD/svg11.dtd'><svg enable-background="new 0 0 48 48" height="48px" id="Layer_1" version="1.1" viewBox="0 0 48 48" width="48px" xml:space="preserve" xmlns="http://www.w3.org/2000/svg" xmlns:xlink="http://www.w3.org/1999/xlink" transform="scale(0.9)"><path d="M40.682,6.746C31.152-2.468,15.958-2.211,6.745,7.318c-9.213,9.53-8.957,24.723,0.574,33.938  c9.529,9.211,24.723,8.955,33.936-0.574C50.469,31.152,50.211,15.958,40.682,6.746z M31.844,30.32l-1.259,1.299  c-0.191,0.189-0.92,0.795-1.796-0.057l-4.741-4.594l-4.588,4.746c-0.849,0.879-1.587,0.305-1.77,0.137l-1.3-1.258  c-0.19-0.189-0.795-0.918,0.053-1.795l4.592-4.751l-4.641-4.498c-0.216-0.216-0.983-1.1-0.162-1.948l1.098-1.133  c0.773-0.797,1.555-0.311,1.9-0.015l4.723,4.576l4.488-4.643c0.217-0.216,1.099-0.985,1.948-0.164l1.135,1.097  c0.798,0.771,0.313,1.554,0.016,1.9l-4.574,4.731l4.745,4.597C32.587,29.4,32.013,30.139,31.844,30.32z" fill="#231F20"/></svg>