<?xml version="1.0" ?><svg id="Layer_1" style="enable-background:new 0 0 30 30;" version="1.1" viewBox="0 0 30 30" xml:space="preserve" xmlns="http://www.w3.org/2000/svg" xmlns:xlink="http://www.w3.org/1999/xlink"><path d="M22,14.757V12c0-3.866-3.134-7-7-7h0c-3.866,0-7,3.134-7,7v2.757C8,17.474,6.921,20.079,5,22l0,0v2h20v-2l0,0  C23.079,20.079,22,17.474,22,14.757z"/><path d="M15,29c1.657,0,3-1.343,3-3h-6C12,27.657,13.343,29,15,29z"/><path d="M17,7h-4V5c0-1.105,0.895-2,2-2h0c1.105,0,2,0.895,2,2V7z"/><circle cx="25" cy="23" r="1"/><circle cx="5" cy="23" r="1"/></svg>