<?xml version="1.0" ?><!DOCTYPE svg  PUBLIC '-//W3C//DTD SVG 1.1//EN'  'http://www.w3.org/Graphics/SVG/1.1/DTD/svg11.dtd'><svg enable-background="new 0 0 512 512" height="512px" version="1.1" viewBox="0 0 512 512" width="512px" xml:space="preserve" xmlns="http://www.w3.org/2000/svg" xmlns:xlink="http://www.w3.org/1999/xlink"><g id="Layer_1"/><g id="Layer_3"><path d="M376.858,125H135.141C111.304,125,92,146.556,92,173.425v121.639C92,321.934,111.304,344,135.141,344   h196.515l40.854,90.17l-0.28-90.17h4.629C400.696,344,420,321.934,420,295.064V173.425C420,146.556,400.696,125,376.858,125z    M145,175h222v20H145V175z M145,227h222v21H145V227z M145,279h222v19H145V279z" fill="#252525"/><rect fill="none" height="16" width="206" x="153" y="271"/><rect fill="none" height="16" width="206" x="153" y="271"/></g></svg>