<?xml version="1.0" ?><!DOCTYPE svg  PUBLIC '-//W3C//DTD SVG 1.1//EN'  'http://www.w3.org/Graphics/SVG/1.1/DTD/svg11.dtd'><svg enable-background="new 0 0 512 512" height="512px" id="Layer_1" version="1.1" viewBox="0 0 512 512" width="512px" xml:space="preserve" xmlns="http://www.w3.org/2000/svg" xmlns:xlink="http://www.w3.org/1999/xlink"><path d="M480,160l-41.095-41.078l-105.28,105.266l-45.812-45.812L393.094,73.094L352,32c0-17.672,14.312-32,32-32h96  c17.688,0,32,14.328,32,32v96C512,145.688,497.688,160,480,160z M160,480c0,17.688-14.312,32-32,32H32c-17.688,0-32-14.312-32-32  v-96c0-17.688,14.312-32,32-32l41.094,41.094l105.281-105.281l45.812,45.812L118.906,438.938L160,480z"/></svg>