<svg xmlns="http://www.w3.org/2000/svg" height="32" width="42" viewBox="0 0 42 32">
<g>
<path d="m8.15 0.176c-2.09 0-2.28 0.109-3.46 0.328-1.17 0.219-2.36 0.546-3.55 0.986v5.79c0.98-0.57 1.97-0.99 2.97-1.28s1.81-0.43 2.96-0.43 2.34 0.32 3.03 0.97c0.8 0.64 1.1 1.5 1.1 2.72 0 1.24-0.3 2.24-1.1 2.84-0.74 0.6-1.87 0.9-3.39 0.9h-2.55v5.1h2.42c1.71 0 3 0.4 3.92 1.1 0.8 0.7 1.3 1.8 1.3 3.2 0 1.3-0.5 2.4-1.3 3.1-0.87 0.7-2.35 1.1-3.7 1.1-1.34 0-2.18-0.2-3.3-0.6s-2.24-0.9-3.37-1.7l0.001 6.1c1.19 0.5 2.38 0.9 3.59 1.2 1.21 0.2 2.43 0.4 3.63 0.4 3.45 0 5.95-0.7 7.85-2.4 1.8-1.7 2.6-4.8 2.6-6.9 0-2.2-0.4-3.7-1.2-5.1-0.8-1.3-2-2.2-3.6-2.8 1.4-0.4 2.5-1.2 3.2-2.4 0.7-1.1 1.1-2.2 1.1-4.37 0-2.21-0.8-4.58-2.3-5.88-1.5-1.31-4.8-1.97-6.85-1.97zm12.6 0.115v31.6h6.1c2.7 0 5.9-0.4 7.6-1 1.7-0.7 3.2-2 4.4-3.5 1.1-1.6 1.8-3.1 2.3-5 0.5-1.8 0.8-4 0.8-6.3 0-2.4-0.3-4.5-0.8-6.37-0.5-1.86-1.2-3.4-2.3-4.93-1.2-1.53-2.7-2.79-4.4-3.47-1.6-0.686-4.2-1.04-7.6-1.04l-6.1 0.001zm5.8 6.16h2.1c2.6 0.2 4.2 0.82 5.4 2.45 1.3 1.6 1.9 4 1.9 7.2 0 3.1-0.6 5.5-1.9 7.1-1.2 1.7-3 2.5-5.4 2.5h-2.1v-19.2z"/>
</g>
</svg>
