<?xml version="1.0" encoding="UTF-8" standalone="no"?>
<!-- Created with Inkscape (http://www.inkscape.org/) -->

<svg
   xmlns:dc="http://purl.org/dc/elements/1.1/"
   xmlns:cc="http://creativecommons.org/ns#"
   xmlns:rdf="http://www.w3.org/1999/02/22-rdf-syntax-ns#"
   xmlns:svg="http://www.w3.org/2000/svg"
   xmlns="http://www.w3.org/2000/svg"
   xmlns:sodipodi="http://sodipodi.sourceforge.net/DTD/sodipodi-0.dtd"
   xmlns:inkscape="http://www.inkscape.org/namespaces/inkscape"
   width="32"
   height="32"
   viewBox="0 0 32 32"
   version="1.1"
   id="svg8"
   inkscape:version="0.92.2 (5c3e80d, 2017-08-06)"
   sodipodi:docname="maximize.svg">
  <defs
     id="defs2" />
  <sodipodi:namedview
     id="base"
     pagecolor="#ffffff"
     bordercolor="#666666"
     borderopacity="1.0"
     inkscape:pageopacity="0.0"
     inkscape:pageshadow="2"
     inkscape:zoom="16"
     inkscape:cx="23.636803"
     inkscape:cy="17.404699"
     inkscape:document-units="px"
     inkscape:current-layer="layer1"
     showgrid="true"
     units="px"
     inkscape:window-width="1821"
     inkscape:window-height="1051"
     inkscape:window-x="90"
     inkscape:window-y="-9"
     inkscape:window-maximized="1">
    <inkscape:grid
       type="xygrid"
       id="grid13" />
  </sodipodi:namedview>
  <metadata
     id="metadata5">
    <rdf:RDF>
      <cc:Work
         rdf:about="">
        <dc:format>image/svg+xml</dc:format>
        <dc:type
           rdf:resource="http://purl.org/dc/dcmitype/StillImage" />
        <dc:title></dc:title>
      </cc:Work>
    </rdf:RDF>
  </metadata>
  <g
     inkscape:groupmode="layer"
     id="layer1"
     inkscape:label="Layer 1"
     transform="translate(0,-276.76667)">
    <path
       d="m 0,276.76666 10,10e-6 2,3 H 7 l 9,9 v 4 h -4 l -9,-9 v 5 l -3,-2 z"
       id="rect3704"
       inkscape:connector-curvature="0"
       sodipodi:nodetypes="ccccccccccc"
       style="stroke-width:1.9999994" />
    <path
       style="stroke-width:1.9999994"
       sodipodi:nodetypes="ccccccccccc"
       inkscape:connector-curvature="0"
       id="path3730"
       d="m 32.000005,276.76666 -1e-5,10 -3,2 v -5 l -9,9 h -4 v -4 l 9,-9 h -5 l 2,-3 z" />
    <path
       d="m 32.000005,308.76667 -10,-10e-6 -2,-3 h 5 l -9,-9 v -4 h 4 l 9,9 v -5 l 3,2 z"
       id="path3732"
       inkscape:connector-curvature="0"
       sodipodi:nodetypes="ccccccccccc"
       style="stroke-width:1.9999994" />
    <path
       style="stroke-width:1.9999994"
       sodipodi:nodetypes="ccccccccccc"
       inkscape:connector-curvature="0"
       id="path3734"
       d="m -5e-6,308.76668 1e-5,-10 3,-2 v 5 l 9,-9 h 4 v 4 l -9,9 h 5 l -2,3 z" />
  </g>
</svg>
